<svg id="svg" version="1.1" xmlns="http://www.w3.org/2000/svg" xmlns:xlink="http://www.w3.org/1999/xlink" width="400" height="400" viewBox="0, 0, 400,400"><g id="svgg"><path id="path0" d="M281.934 116.919 L 273.438 122.021 273.422 161.890 L 273.406 201.758 272.243 200.397 C 271.603 199.649,271.169 198.805,271.278 198.521 C 271.386 198.238,271.330 198.096,271.151 198.207 C 270.675 198.501,269.057 196.154,269.378 195.634 C 269.536 195.380,269.479 195.299,269.244 195.444 C 268.745 195.752,267.450 193.882,267.786 193.339 C 267.919 193.125,267.794 192.998,267.510 193.057 C 267.223 193.116,267.016 192.860,267.046 192.485 C 267.075 192.111,266.957 191.893,266.783 192.001 C 266.608 192.109,266.101 191.684,265.655 191.058 C 264.733 189.763,264.619 189.278,265.332 189.688 C 265.616 189.851,265.684 189.820,265.495 189.613 C 265.316 189.418,264.964 189.254,264.714 189.248 C 264.463 189.243,264.281 188.942,264.310 188.580 C 264.338 188.218,264.162 187.958,263.919 188.004 C 263.676 188.049,263.501 187.780,263.530 187.407 C 263.560 187.033,263.456 186.806,263.299 186.903 C 262.851 187.180,261.261 184.799,261.566 184.306 C 261.722 184.054,261.666 183.971,261.437 184.112 C 260.872 184.461,258.836 181.424,259.205 180.785 C 259.367 180.503,259.356 180.404,259.181 180.563 C 259.005 180.722,258.625 180.657,258.337 180.418 C 257.697 179.886,257.635 179.141,258.263 179.529 C 258.545 179.704,258.608 179.636,258.432 179.351 C 258.276 179.099,258.005 178.983,257.828 179.092 C 257.364 179.379,256.167 177.404,256.489 176.882 C 256.642 176.635,256.588 176.549,256.365 176.687 C 255.870 176.993,250.656 169.659,250.988 169.122 C 251.121 168.907,250.997 168.779,250.713 168.838 C 250.428 168.897,250.219 168.645,250.247 168.277 C 250.275 167.909,250.156 167.646,249.982 167.691 C 249.807 167.736,248.817 166.545,247.780 165.044 C 245.702 162.035,244.769 161.498,244.372 163.082 C 244.218 163.696,243.945 163.988,243.678 163.823 C 243.403 163.653,243.348 163.728,243.530 164.022 C 243.915 164.645,241.807 169.583,241.292 169.265 C 241.064 169.124,241.015 169.214,241.176 169.474 C 241.571 170.113,241.048 171.551,240.537 171.234 C 240.277 171.074,240.227 171.156,240.407 171.448 C 240.796 172.077,239.867 174.279,239.347 173.958 C 239.111 173.812,239.059 173.897,239.223 174.162 C 239.617 174.801,239.095 176.238,238.583 175.922 C 238.330 175.765,238.273 175.843,238.441 176.115 C 238.836 176.754,238.314 178.191,237.802 177.875 C 237.554 177.721,237.492 177.795,237.652 178.055 C 237.982 178.589,235.197 185.228,234.758 184.956 C 234.587 184.851,234.547 185.144,234.668 185.607 C 234.832 186.235,234.758 186.370,234.376 186.134 C 234.048 185.930,233.958 185.970,234.127 186.242 C 234.458 186.778,232.411 191.836,231.973 191.565 C 231.795 191.456,231.765 191.667,231.907 192.036 C 232.080 192.488,232.016 192.615,231.711 192.427 C 231.422 192.248,231.338 192.352,231.478 192.718 C 231.781 193.509,228.922 200.056,228.411 199.740 C 228.174 199.593,228.121 199.678,228.285 199.943 C 228.680 200.582,228.158 202.020,227.646 201.703 C 227.386 201.543,227.336 201.625,227.516 201.916 C 227.905 202.546,226.976 204.748,226.457 204.427 C 226.234 204.289,226.164 204.359,226.302 204.582 C 226.641 205.131,225.796 207.477,225.357 207.206 C 225.166 207.087,225.125 207.292,225.266 207.661 C 225.440 208.113,225.376 208.240,225.071 208.052 C 224.783 207.874,224.697 207.976,224.833 208.331 C 225.117 209.073,221.432 217.592,220.954 217.296 C 220.743 217.166,220.712 217.276,220.882 217.552 C 221.282 218.199,219.182 223.118,218.647 222.788 C 218.399 222.635,218.356 222.726,218.538 223.021 C 218.904 223.613,216.854 228.597,216.368 228.297 C 216.179 228.180,216.117 228.326,216.231 228.622 C 216.461 229.222,215.245 232.271,213.938 234.372 L 213.086 235.742 212.891 196.420 L 212.695 157.098 200.586 164.409 L 188.477 171.720 188.381 249.239 L 188.285 326.758 190.927 328.196 L 193.568 329.634 197.932 327.219 L 202.296 324.805 204.708 319.141 C 207.231 313.215,213.890 297.445,215.430 293.750 C 218.327 286.796,230.518 257.786,231.720 254.986 C 232.168 253.941,232.690 253.245,232.919 253.386 C 233.161 253.535,233.206 253.445,233.031 253.162 C 232.700 252.627,233.533 250.307,233.961 250.571 C 234.113 250.665,234.225 250.431,234.209 250.051 C 234.163 248.952,241.921 230.890,242.330 231.143 C 242.533 231.268,242.577 231.173,242.427 230.931 C 242.278 230.690,242.534 229.564,242.997 228.430 C 245.223 222.972,246.240 220.748,246.450 220.877 C 246.576 220.955,246.705 220.593,246.736 220.074 C 246.768 219.554,247.100 218.660,247.476 218.087 L 248.158 217.045 248.884 217.941 C 249.795 219.065,249.810 219.571,248.926 219.287 C 248.368 219.108,248.347 219.141,248.809 219.469 C 249.121 219.690,249.502 219.793,249.656 219.698 C 250.085 219.432,253.156 223.956,252.937 224.532 C 252.830 224.812,252.897 224.945,253.085 224.829 C 253.563 224.534,254.421 225.656,254.106 226.164 C 253.964 226.394,254.081 226.534,254.365 226.475 C 254.652 226.415,254.859 226.671,254.829 227.047 C 254.800 227.420,254.916 227.639,255.088 227.533 C 255.354 227.369,259.766 233.231,259.766 233.748 C 259.766 233.846,259.546 234.003,259.277 234.095 C 259.009 234.187,259.099 234.216,259.478 234.159 C 260.303 234.034,262.684 237.277,262.265 237.954 C 262.110 238.205,262.160 238.296,262.378 238.162 C 262.899 237.839,264.563 240.132,264.215 240.694 C 264.053 240.956,264.116 241.029,264.368 240.873 C 264.890 240.551,267.333 243.980,266.984 244.544 C 266.849 244.763,266.972 244.893,267.256 244.834 C 267.541 244.775,267.750 245.027,267.722 245.395 C 267.693 245.762,267.819 246.026,268.001 245.981 C 268.385 245.885,272.309 251.347,281.976 265.430 C 284.757 269.481,288.848 275.209,289.453 275.899 C 289.604 276.071,290.589 275.697,291.641 275.067 C 294.111 273.590,307.837 265.778,310.251 264.476 L 312.105 263.477 312.009 193.966 L 311.914 124.455 302.539 118.846 C 297.383 115.762,292.549 112.918,291.797 112.527 L 290.430 111.816 281.934 116.919 M272.755 142.383 C 272.759 143.242,272.839 143.548,272.933 143.062 C 273.026 142.576,273.022 141.873,272.925 141.499 C 272.827 141.126,272.750 141.523,272.755 142.383 M213.388 188.672 C 213.388 189.639,213.464 190.034,213.557 189.551 C 213.650 189.067,213.650 188.276,213.557 187.793 C 213.464 187.310,213.388 187.705,213.388 188.672 M213.415 202.930 C 213.417 204.648,213.485 205.303,213.568 204.384 C 213.650 203.465,213.649 202.059,213.565 201.259 C 213.481 200.459,213.414 201.211,213.415 202.930 M213.388 214.063 C 213.388 215.029,213.464 215.425,213.557 214.941 C 213.650 214.458,213.650 213.667,213.557 213.184 C 213.464 212.700,213.388 213.096,213.388 214.063 M213.393 222.461 C 213.396 223.535,213.472 223.928,213.562 223.334 C 213.651 222.741,213.649 221.862,213.556 221.381 C 213.464 220.901,213.390 221.387,213.393 222.461 " stroke="none" fill="#7c04e9" fill-rule="evenodd"></path><path id="path1" d="M197.796 58.082 C 198.180 58.467,196.538 59.454,196.033 59.142 C 195.733 58.957,195.690 59.037,195.902 59.381 C 196.134 59.756,196.044 59.830,195.577 59.651 C 195.179 59.498,194.967 59.585,195.024 59.877 C 195.075 60.138,194.811 60.327,194.438 60.298 C 194.051 60.268,193.868 60.423,194.014 60.657 C 194.174 60.917,194.020 60.975,193.598 60.813 C 193.147 60.640,193.019 60.703,193.208 61.008 C 193.394 61.310,193.272 61.378,192.842 61.213 C 192.444 61.061,192.233 61.147,192.290 61.440 C 192.341 61.701,192.077 61.890,191.703 61.861 C 191.317 61.830,191.134 61.985,191.279 62.220 C 191.438 62.477,191.290 62.539,190.889 62.385 C 190.491 62.232,190.279 62.319,190.337 62.612 C 190.388 62.873,190.124 63.062,189.750 63.032 C 189.364 63.002,189.181 63.157,189.326 63.392 C 189.487 63.652,189.333 63.709,188.911 63.547 C 188.459 63.374,188.332 63.438,188.520 63.743 C 188.706 64.043,188.586 64.113,188.163 63.951 C 187.812 63.816,187.404 63.901,187.257 64.140 C 187.094 64.403,187.167 64.464,187.440 64.295 C 187.688 64.142,187.891 64.110,187.891 64.225 C 187.891 64.595,185.757 65.523,185.290 65.355 C 185.041 65.266,184.706 65.405,184.546 65.665 C 184.361 65.964,184.419 66.035,184.705 65.858 C 184.953 65.704,185.156 65.660,185.156 65.759 C 185.156 66.182,182.324 67.564,181.941 67.327 C 181.671 67.160,181.635 67.253,181.840 67.584 C 182.071 67.958,181.982 68.034,181.522 67.857 C 181.171 67.722,180.764 67.808,180.616 68.046 C 180.444 68.324,180.545 68.378,180.897 68.195 C 181.198 68.039,181.099 68.191,180.675 68.534 C 180.252 68.877,179.671 69.068,179.385 68.958 C 179.100 68.849,178.968 68.924,179.092 69.126 C 179.399 69.622,177.840 70.418,177.238 70.073 C 176.974 69.921,176.889 69.941,177.048 70.117 C 177.451 70.561,175.885 71.594,175.330 71.251 C 175.030 71.066,174.986 71.146,175.199 71.490 C 175.433 71.869,175.339 71.939,174.848 71.751 C 174.397 71.577,174.269 71.641,174.458 71.946 C 174.644 72.247,174.522 72.316,174.092 72.151 C 173.694 71.998,173.483 72.085,173.540 72.377 C 173.591 72.638,173.327 72.827,172.953 72.798 C 172.567 72.768,172.384 72.923,172.529 73.157 C 172.694 73.424,172.524 73.470,172.049 73.288 C 171.644 73.133,171.438 73.131,171.591 73.284 C 172.008 73.701,170.388 74.699,169.824 74.374 C 169.555 74.220,169.467 74.238,169.626 74.414 C 170.038 74.868,168.460 75.885,167.870 75.546 C 167.602 75.392,167.514 75.410,167.673 75.586 C 168.076 76.030,166.510 77.063,165.955 76.720 C 165.655 76.535,165.611 76.615,165.824 76.959 C 166.056 77.334,165.966 77.408,165.498 77.229 C 165.101 77.076,164.889 77.163,164.946 77.455 C 164.997 77.716,164.733 77.906,164.360 77.876 C 163.973 77.846,163.790 78.001,163.935 78.235 C 164.096 78.495,163.942 78.553,163.520 78.391 C 163.069 78.218,162.941 78.282,163.130 78.586 C 163.315 78.887,163.195 78.957,162.772 78.794 C 162.421 78.660,162.014 78.745,161.866 78.984 C 161.694 79.262,161.795 79.316,162.147 79.133 C 162.448 78.976,162.349 79.129,161.925 79.472 C 161.502 79.815,160.936 80.011,160.668 79.908 C 160.400 79.806,160.061 79.917,159.913 80.156 C 159.741 80.434,159.842 80.487,160.194 80.305 C 160.495 80.148,160.396 80.301,159.972 80.644 C 159.549 80.987,158.979 81.182,158.707 81.077 C 158.435 80.973,158.254 81.101,158.305 81.362 C 158.357 81.623,158.093 81.812,157.719 81.782 C 157.333 81.752,157.150 81.907,157.295 82.142 C 157.455 82.402,157.302 82.459,156.880 82.297 C 156.501 82.152,156.308 82.200,156.436 82.407 C 156.737 82.894,155.184 83.705,154.619 83.356 C 154.327 83.176,154.285 83.259,154.496 83.600 C 154.736 83.988,154.631 84.046,154.080 83.835 C 153.675 83.680,153.469 83.678,153.623 83.831 C 154.030 84.238,152.423 85.252,151.892 84.923 C 151.593 84.738,151.549 84.818,151.762 85.162 C 151.993 85.537,151.904 85.611,151.436 85.432 C 151.038 85.279,150.826 85.366,150.884 85.659 C 150.935 85.919,150.671 86.109,150.297 86.079 C 149.911 86.049,149.728 86.204,149.873 86.439 C 150.038 86.706,149.868 86.752,149.392 86.569 C 148.988 86.414,148.782 86.412,148.935 86.565 C 149.342 86.972,147.736 87.986,147.205 87.658 C 146.956 87.504,146.859 87.549,146.989 87.760 C 147.297 88.258,143.033 90.704,142.444 90.368 C 142.196 90.225,142.123 90.253,142.283 90.430 C 142.694 90.884,141.116 91.901,140.527 91.562 C 140.258 91.407,140.170 91.425,140.330 91.602 C 140.741 92.055,139.163 93.073,138.574 92.733 C 138.305 92.579,138.217 92.597,138.376 92.773 C 138.779 93.217,137.213 94.251,136.658 93.908 C 136.358 93.723,136.315 93.803,136.527 94.147 C 136.761 94.525,136.667 94.595,136.177 94.407 C 135.725 94.233,135.597 94.297,135.786 94.602 C 135.972 94.903,135.851 94.972,135.428 94.810 C 135.078 94.675,134.670 94.761,134.522 94.999 C 134.349 95.280,134.434 95.322,134.766 95.117 C 135.114 94.902,135.183 94.953,134.982 95.279 C 134.819 95.541,134.432 95.659,134.120 95.539 C 133.808 95.419,133.641 95.463,133.748 95.636 C 134.004 96.050,131.745 97.376,131.276 97.086 C 131.077 96.963,130.786 97.068,130.631 97.320 C 130.454 97.605,130.517 97.672,130.799 97.498 C 131.047 97.345,131.250 97.313,131.250 97.428 C 131.250 97.542,130.703 97.919,130.035 98.264 C 129.145 98.725,128.901 98.754,129.122 98.372 C 129.289 98.086,128.950 98.351,128.369 98.962 C 127.738 99.626,127.076 99.981,126.723 99.845 C 126.339 99.698,126.230 99.778,126.411 100.071 C 126.597 100.371,126.476 100.441,126.053 100.279 C 125.703 100.144,125.295 100.229,125.147 100.468 C 124.974 100.749,125.059 100.791,125.391 100.586 C 125.739 100.371,125.808 100.422,125.607 100.748 C 125.444 101.010,125.027 101.116,124.679 100.983 C 124.332 100.849,124.173 100.865,124.326 101.019 C 124.733 101.425,123.127 102.439,122.595 102.111 C 122.296 101.926,122.252 102.006,122.465 102.350 C 122.696 102.725,122.607 102.799,122.139 102.620 C 121.741 102.467,121.529 102.554,121.587 102.846 C 121.638 103.107,121.374 103.296,121.000 103.267 C 120.627 103.237,120.397 103.337,120.491 103.488 C 120.742 103.894,118.425 105.165,117.958 104.876 C 117.739 104.741,117.607 104.862,117.666 105.147 C 117.725 105.433,117.470 105.640,117.094 105.611 C 116.708 105.580,116.525 105.735,116.670 105.970 C 116.829 106.227,116.681 106.289,116.280 106.135 C 115.882 105.982,115.670 106.069,115.727 106.362 C 115.778 106.623,115.515 106.812,115.141 106.782 C 114.755 106.752,114.572 106.907,114.717 107.142 C 114.877 107.402,114.723 107.459,114.302 107.297 C 113.903 107.145,113.728 107.197,113.870 107.426 C 114.080 107.766,113.832 107.875,113.050 107.786 C 112.923 107.772,112.598 108.063,112.328 108.432 C 112.014 108.863,111.641 108.990,111.290 108.786 C 110.989 108.611,110.873 108.613,111.033 108.789 C 111.413 109.208,109.885 110.276,109.365 109.955 C 109.145 109.819,109.013 109.940,109.072 110.225 C 109.132 110.511,108.876 110.718,108.500 110.689 C 108.114 110.658,107.931 110.813,108.076 111.048 C 108.237 111.308,108.083 111.366,107.661 111.204 C 107.209 111.030,107.082 111.094,107.270 111.399 C 107.456 111.699,107.336 111.769,106.913 111.607 C 106.562 111.472,106.154 111.558,106.007 111.796 C 105.835 112.074,105.935 112.128,106.287 111.945 C 106.589 111.789,106.489 111.941,106.066 112.284 C 105.642 112.627,105.032 112.807,104.711 112.683 C 104.389 112.560,104.251 112.584,104.404 112.737 C 104.811 113.144,103.205 114.158,102.673 113.829 C 102.374 113.644,102.330 113.725,102.543 114.069 C 102.774 114.443,102.685 114.518,102.217 114.338 C 101.819 114.186,101.608 114.272,101.665 114.565 C 101.716 114.826,101.452 115.015,101.078 114.986 C 100.705 114.956,100.488 115.075,100.596 115.250 C 100.797 115.576,99.284 116.241,98.701 116.083 C 98.524 116.035,98.509 116.206,98.668 116.463 C 98.871 116.792,98.739 116.846,98.221 116.647 C 97.816 116.492,97.610 116.490,97.763 116.644 C 98.170 117.050,96.564 118.064,96.033 117.736 C 95.754 117.563,95.689 117.629,95.861 117.908 C 96.106 118.305,95.887 118.424,95.082 118.333 C 94.955 118.319,94.630 118.610,94.360 118.979 C 94.045 119.409,93.672 119.537,93.321 119.333 C 93.020 119.158,92.904 119.160,93.064 119.336 C 93.475 119.790,91.897 120.807,91.308 120.468 C 91.040 120.314,90.951 120.331,91.111 120.508 C 91.513 120.952,89.947 121.985,89.392 121.642 C 89.093 121.457,89.049 121.537,89.262 121.881 C 89.496 122.260,89.402 122.329,88.911 122.141 C 88.459 121.968,88.332 122.032,88.520 122.336 C 88.706 122.637,88.586 122.707,88.163 122.544 C 87.812 122.410,87.404 122.495,87.257 122.734 C 87.083 123.015,87.169 123.056,87.500 122.852 C 87.849 122.636,87.917 122.688,87.716 123.013 C 87.554 123.276,87.136 123.382,86.789 123.248 C 86.441 123.115,86.282 123.131,86.435 123.284 C 86.842 123.691,85.236 124.705,84.705 124.376 C 84.405 124.191,84.361 124.271,84.574 124.615 C 84.805 124.989,84.717 125.065,84.256 124.888 C 83.906 124.754,83.498 124.839,83.351 125.077 C 83.179 125.356,83.279 125.409,83.631 125.227 C 83.933 125.070,83.833 125.223,83.410 125.566 C 82.986 125.909,82.406 126.099,82.120 125.990 C 81.799 125.866,81.707 125.963,81.880 126.243 C 82.065 126.543,81.945 126.613,81.522 126.451 C 81.171 126.316,80.764 126.401,80.616 126.640 C 80.454 126.903,80.526 126.964,80.799 126.795 C 81.047 126.642,81.250 126.610,81.250 126.725 C 81.250 126.839,80.703 127.216,80.035 127.561 C 79.134 128.027,78.889 128.055,79.088 127.669 C 79.235 127.383,79.078 127.490,78.740 127.907 C 78.204 128.568,77.605 260.953,78.128 263.086 C 78.181 263.301,78.231 263.680,78.240 263.928 C 78.248 264.176,78.451 264.304,78.690 264.212 C 78.929 264.120,79.470 264.326,79.894 264.669 C 80.318 265.012,80.417 265.164,80.115 265.008 C 79.752 264.819,79.662 264.877,79.849 265.180 C 80.005 265.432,80.280 265.546,80.460 265.435 C 80.916 265.154,82.070 265.638,81.838 266.012 C 81.734 266.181,81.955 266.294,82.328 266.264 C 82.702 266.235,82.966 266.424,82.915 266.685 C 82.858 266.978,83.069 267.064,83.467 266.912 C 83.897 266.747,84.019 266.815,83.833 267.117 C 83.644 267.422,83.772 267.485,84.223 267.312 C 84.714 267.124,84.808 267.193,84.574 267.572 C 84.361 267.916,84.405 267.996,84.705 267.811 C 85.236 267.483,86.842 268.496,86.435 268.903 C 86.282 269.057,86.488 269.055,86.892 268.900 C 87.444 268.688,87.548 268.747,87.308 269.135 C 87.096 269.479,87.140 269.559,87.439 269.374 C 87.970 269.045,89.576 270.059,89.170 270.466 C 89.016 270.619,89.222 270.617,89.627 270.462 C 90.135 270.267,90.276 270.319,90.083 270.632 C 89.894 270.937,90.022 271.001,90.473 270.828 C 90.895 270.666,91.049 270.723,90.889 270.983 C 90.743 271.218,90.926 271.373,91.313 271.343 C 91.686 271.313,91.950 271.502,91.899 271.763 C 91.842 272.056,92.054 272.143,92.452 271.990 C 92.882 271.825,93.004 271.893,92.817 272.195 C 92.629 272.500,92.756 272.563,93.208 272.390 C 93.699 272.202,93.793 272.271,93.558 272.650 C 93.346 272.994,93.390 273.074,93.689 272.889 C 94.220 272.561,95.826 273.575,95.420 273.981 C 95.266 274.135,95.472 274.133,95.877 273.978 C 96.353 273.795,96.522 273.841,96.357 274.108 C 96.212 274.343,96.395 274.498,96.782 274.468 C 97.155 274.438,97.419 274.627,97.368 274.888 C 97.311 275.181,97.522 275.268,97.920 275.115 C 98.388 274.935,98.478 275.010,98.246 275.385 C 98.035 275.725,98.077 275.809,98.369 275.628 C 98.934 275.279,100.487 276.090,100.186 276.578 C 100.058 276.785,100.251 276.832,100.630 276.687 C 101.052 276.525,101.205 276.583,101.045 276.843 C 100.900 277.077,101.083 277.232,101.469 277.202 C 101.843 277.173,102.107 277.362,102.055 277.623 C 101.998 277.915,102.210 278.002,102.608 277.849 C 103.078 277.669,103.166 277.743,102.930 278.125 C 102.690 278.512,102.783 278.580,103.288 278.387 C 103.663 278.243,104.044 278.125,104.134 278.125 C 104.223 278.125,104.297 256.328,104.297 229.688 C 104.297 187.352,104.369 181.250,104.871 181.250 C 105.234 181.250,105.357 181.023,105.207 180.631 C 105.016 180.133,104.905 180.114,104.639 180.534 C 104.414 180.889,104.307 180.907,104.303 180.589 C 104.300 180.334,104.457 180.025,104.653 179.904 C 105.091 179.633,107.111 183.149,106.803 183.646 C 106.682 183.843,106.815 183.955,107.100 183.896 C 107.411 183.832,107.606 184.131,107.589 184.645 C 107.573 185.116,107.749 185.467,107.979 185.426 C 108.210 185.385,108.374 185.657,108.345 186.031 C 108.314 186.417,108.469 186.600,108.704 186.455 C 108.964 186.295,109.022 186.448,108.860 186.870 C 108.687 187.322,108.750 187.449,109.055 187.261 C 109.360 187.072,109.424 187.200,109.251 187.652 C 109.077 188.103,109.141 188.231,109.446 188.042 C 109.751 187.854,109.815 187.981,109.641 188.433 C 109.500 188.801,109.525 189.016,109.698 188.909 C 110.159 188.624,111.422 190.938,111.095 191.467 C 110.933 191.730,110.988 191.812,111.227 191.664 C 111.719 191.360,112.219 192.475,111.855 193.064 C 111.710 193.299,111.782 193.367,112.021 193.219 C 112.425 192.969,113.142 194.369,112.958 195.049 C 112.910 195.226,113.081 195.241,113.338 195.082 C 113.659 194.884,113.724 195.003,113.547 195.464 C 113.374 195.916,113.438 196.043,113.743 195.855 C 114.048 195.666,114.111 195.794,113.938 196.245 C 113.765 196.697,113.828 196.824,114.133 196.636 C 114.438 196.447,114.502 196.575,114.329 197.027 C 114.155 197.478,114.219 197.606,114.524 197.417 C 114.824 197.231,114.894 197.352,114.732 197.775 C 114.597 198.126,114.683 198.533,114.921 198.681 C 115.199 198.853,115.253 198.752,115.070 198.400 C 114.914 198.098,115.066 198.198,115.409 198.622 C 115.752 199.045,115.943 199.626,115.833 199.911 C 115.710 200.232,115.807 200.324,116.086 200.152 C 116.391 199.963,116.455 200.090,116.282 200.542 C 116.108 200.994,116.172 201.121,116.477 200.933 C 116.779 200.746,116.847 200.868,116.682 201.298 C 116.529 201.696,116.616 201.908,116.909 201.851 C 117.169 201.800,117.359 202.064,117.329 202.437 C 117.299 202.824,117.454 203.007,117.689 202.861 C 117.948 202.701,118.006 202.855,117.844 203.277 C 117.671 203.728,117.735 203.856,118.040 203.667 C 118.345 203.479,118.408 203.606,118.235 204.058 C 118.062 204.509,118.125 204.637,118.430 204.448 C 118.735 204.260,118.799 204.387,118.626 204.839 C 118.452 205.291,118.516 205.418,118.821 205.230 C 119.122 205.043,119.191 205.165,119.026 205.595 C 118.873 205.993,118.960 206.205,119.252 206.148 C 119.513 206.097,119.702 206.360,119.673 206.734 C 119.643 207.120,119.798 207.303,120.032 207.158 C 120.292 206.998,120.350 207.152,120.188 207.573 C 120.015 208.025,120.078 208.153,120.383 207.964 C 120.688 207.776,120.752 207.903,120.579 208.355 C 120.405 208.806,120.469 208.934,120.774 208.745 C 121.079 208.557,121.143 208.684,120.969 209.136 C 120.824 209.515,120.872 209.708,121.079 209.580 C 121.566 209.279,122.377 210.831,122.028 211.397 C 121.848 211.688,121.931 211.730,122.272 211.520 C 122.650 211.286,122.720 211.379,122.532 211.870 C 122.358 212.322,122.422 212.449,122.727 212.261 C 123.032 212.072,123.096 212.200,122.922 212.652 C 122.777 213.030,122.825 213.223,123.032 213.095 C 123.519 212.794,124.330 214.347,123.981 214.912 C 123.801 215.204,123.884 215.246,124.225 215.035 C 124.604 214.801,124.673 214.895,124.485 215.386 C 124.312 215.838,124.375 215.965,124.680 215.777 C 124.985 215.588,125.049 215.715,124.876 216.167 C 124.702 216.619,124.766 216.746,125.071 216.558 C 125.376 216.369,125.440 216.497,125.266 216.948 C 125.093 217.400,125.157 217.528,125.461 217.339 C 125.774 217.146,125.827 217.287,125.632 217.795 C 125.476 218.200,125.475 218.406,125.628 218.252 C 126.035 217.845,127.048 219.452,126.720 219.983 C 126.535 220.282,126.615 220.326,126.959 220.113 C 127.338 219.879,127.408 219.973,127.219 220.464 C 127.046 220.916,127.110 221.043,127.415 220.855 C 127.727 220.661,127.780 220.802,127.585 221.311 C 127.430 221.715,127.428 221.921,127.581 221.768 C 127.988 221.361,129.002 222.967,128.673 223.499 C 128.488 223.798,128.568 223.842,128.912 223.629 C 129.291 223.395,129.361 223.489,129.172 223.980 C 128.999 224.431,129.063 224.559,129.368 224.370 C 129.673 224.182,129.736 224.309,129.563 224.761 C 129.390 225.213,129.453 225.340,129.758 225.152 C 130.063 224.963,130.127 225.090,129.954 225.542 C 129.780 225.994,129.844 226.121,130.149 225.933 C 130.454 225.744,130.518 225.872,130.344 226.323 C 130.199 226.702,130.247 226.895,130.454 226.767 C 130.941 226.466,131.752 228.019,131.403 228.584 C 131.223 228.876,131.306 228.918,131.647 228.707 C 132.025 228.473,132.095 228.567,131.907 229.058 C 131.733 229.509,131.797 229.637,132.102 229.448 C 132.407 229.260,132.471 229.387,132.297 229.839 C 132.124 230.291,132.188 230.418,132.493 230.230 C 132.798 230.041,132.861 230.169,132.688 230.620 C 132.515 231.072,132.578 231.199,132.883 231.011 C 133.196 230.818,133.249 230.958,133.054 231.467 C 132.898 231.872,132.897 232.077,133.050 231.924 C 133.457 231.517,134.470 233.123,134.142 233.655 C 133.957 233.954,134.037 233.998,134.381 233.785 C 134.760 233.551,134.829 233.645,134.641 234.136 C 134.468 234.588,134.532 234.715,134.836 234.527 C 135.141 234.338,135.205 234.465,135.032 234.917 C 134.858 235.369,134.922 235.496,135.227 235.308 C 135.540 235.114,135.592 235.255,135.397 235.764 C 135.242 236.169,135.240 236.374,135.394 236.221 C 135.800 235.814,136.814 237.420,136.486 237.952 C 136.323 238.214,136.378 238.296,136.617 238.149 C 137.110 237.844,137.610 238.959,137.246 239.549 C 137.082 239.813,137.177 239.848,137.506 239.645 C 137.885 239.411,137.954 239.504,137.766 239.995 C 137.625 240.364,137.650 240.578,137.823 240.471 C 138.284 240.187,139.547 242.501,139.220 243.030 C 139.058 243.293,139.113 243.374,139.352 243.227 C 139.844 242.922,140.344 244.037,139.980 244.627 C 139.817 244.891,139.912 244.926,140.240 244.723 C 140.619 244.489,140.689 244.583,140.501 245.073 C 140.327 245.525,140.391 245.653,140.696 245.464 C 141.001 245.276,141.065 245.403,140.891 245.855 C 140.718 246.306,140.782 246.434,141.086 246.245 C 141.391 246.057,141.455 246.184,141.282 246.636 C 141.108 247.088,141.172 247.215,141.477 247.027 C 141.790 246.833,141.842 246.974,141.647 247.483 C 141.492 247.887,141.490 248.093,141.644 247.940 C 142.050 247.533,143.064 249.139,142.736 249.670 C 142.551 249.970,142.631 250.014,142.975 249.801 C 143.354 249.567,143.423 249.661,143.235 250.152 C 143.062 250.603,143.125 250.731,143.430 250.542 C 143.735 250.354,143.799 250.481,143.626 250.933 C 143.484 251.302,143.529 251.504,143.726 251.382 C 144.081 251.163,144.767 252.632,144.599 253.252 C 144.551 253.429,144.722 253.444,144.979 253.285 C 145.300 253.087,145.365 253.206,145.188 253.667 C 145.015 254.119,145.078 254.246,145.383 254.058 C 145.688 253.869,145.752 253.997,145.579 254.448 C 145.405 254.900,145.469 255.028,145.774 254.839 C 146.079 254.651,146.143 254.778,145.969 255.230 C 145.796 255.681,145.860 255.809,146.165 255.620 C 146.477 255.427,146.530 255.568,146.335 256.076 C 146.180 256.481,146.178 256.686,146.332 256.532 C 146.726 256.138,148.121 258.548,147.800 259.068 C 147.629 259.344,147.719 259.382,148.053 259.176 C 148.432 258.942,148.501 259.036,148.313 259.527 C 148.140 259.978,148.203 260.106,148.508 259.917 C 148.813 259.729,148.877 259.856,148.704 260.308 C 148.557 260.691,148.605 260.880,148.817 260.749 C 149.280 260.463,150.852 263.633,150.516 264.176 C 150.381 264.395,150.447 264.464,150.664 264.330 C 151.128 264.044,152.069 265.904,151.734 266.445 C 151.608 266.649,151.737 266.768,152.022 266.709 C 152.308 266.650,152.515 266.905,152.486 267.281 C 152.455 267.667,152.610 267.850,152.845 267.705 C 153.098 267.549,153.166 267.689,153.021 268.068 C 152.880 268.434,153.029 268.779,153.386 268.916 C 153.721 269.045,153.889 269.403,153.766 269.725 C 153.638 270.058,153.745 270.264,154.018 270.210 C 154.279 270.159,154.468 270.423,154.439 270.797 C 154.408 271.183,154.563 271.366,154.798 271.221 C 155.058 271.060,155.116 271.214,154.954 271.636 C 154.780 272.088,154.844 272.215,155.149 272.027 C 155.454 271.838,155.518 271.965,155.344 272.417 C 155.171 272.869,155.235 272.996,155.540 272.808 C 155.845 272.619,155.908 272.747,155.735 273.198 C 155.562 273.650,155.625 273.778,155.930 273.589 C 156.235 273.401,156.299 273.528,156.126 273.980 C 155.952 274.431,156.016 274.559,156.321 274.370 C 156.626 274.182,156.690 274.309,156.516 274.761 C 156.371 275.140,156.418 275.333,156.626 275.205 C 157.113 274.904,157.924 276.456,157.575 277.022 C 157.395 277.313,157.478 277.355,157.819 277.145 C 158.197 276.911,158.267 277.004,158.079 277.495 C 157.905 277.947,157.969 278.074,158.274 277.886 C 158.579 277.697,158.643 277.825,158.469 278.277 C 158.296 278.728,158.360 278.856,158.665 278.667 C 158.970 278.479,159.033 278.606,158.860 279.058 C 158.718 279.426,158.744 279.641,158.917 279.534 C 159.378 279.249,160.641 281.563,160.314 282.092 C 160.129 282.392,160.209 282.435,160.553 282.223 C 160.941 281.983,161.000 282.087,160.788 282.639 C 160.633 283.044,160.631 283.249,160.784 283.096 C 161.191 282.689,162.205 284.295,161.876 284.827 C 161.707 285.101,161.770 285.171,162.038 285.005 C 162.826 284.518,162.921 286.305,162.807 299.479 C 162.746 306.605,162.783 312.429,162.891 312.421 C 163.674 312.366,164.071 312.561,163.861 312.900 C 163.725 313.120,163.759 313.261,163.936 313.214 C 164.518 313.056,166.031 313.721,165.830 314.047 C 165.722 314.222,165.939 314.341,166.313 314.311 C 166.686 314.282,166.950 314.471,166.899 314.732 C 166.842 315.024,167.054 315.111,167.452 314.959 C 167.882 314.794,168.004 314.862,167.817 315.164 C 167.629 315.468,167.756 315.532,168.208 315.359 C 168.699 315.171,168.793 315.240,168.558 315.619 C 168.346 315.963,168.390 316.043,168.689 315.858 C 169.220 315.530,170.826 316.543,170.420 316.950 C 170.266 317.103,170.472 317.102,170.877 316.946 C 171.428 316.735,171.532 316.794,171.293 317.181 C 171.080 317.525,171.124 317.606,171.423 317.421 C 171.997 317.066,174.255 318.376,173.942 318.882 C 173.813 319.091,173.907 319.138,174.150 318.988 C 174.758 318.612,176.257 319.468,175.927 320.002 C 175.774 320.249,175.838 320.324,176.076 320.176 C 176.632 319.833,177.789 320.299,177.508 320.754 C 177.386 320.951,177.431 321.074,177.608 321.026 C 178.288 320.842,179.687 321.559,179.438 321.963 C 179.282 322.215,179.358 322.274,179.626 322.108 C 180.158 321.780,181.764 322.793,181.357 323.200 C 181.204 323.353,181.410 323.352,181.814 323.196 C 182.323 323.001,182.464 323.054,182.270 323.367 C 182.082 323.672,182.209 323.735,182.661 323.562 C 183.083 323.400,183.237 323.458,183.076 323.718 C 182.931 323.952,183.114 324.107,183.500 324.077 C 183.876 324.047,184.132 324.255,184.072 324.541 C 184.009 324.847,184.151 324.943,184.419 324.778 C 184.678 324.618,185.200 324.899,185.634 325.432 C 186.053 325.946,186.284 326.149,186.146 325.883 C 185.982 325.564,186.103 325.479,186.501 325.631 C 186.833 325.759,187.009 326.018,186.892 326.208 C 186.774 326.398,186.980 326.438,187.348 326.296 C 187.839 326.108,187.933 326.178,187.699 326.556 C 187.486 326.901,187.530 326.981,187.831 326.794 C 188.171 326.584,188.274 307.338,188.244 249.097 L 188.205 171.680 189.903 170.671 C 190.837 170.116,192.876 168.910,194.434 167.990 C 195.991 167.069,197.266 166.151,197.266 165.948 C 197.266 165.745,197.441 165.688,197.656 165.820 C 197.871 165.953,198.047 165.876,198.047 165.648 C 198.047 165.421,198.179 165.275,198.340 165.326 C 198.831 165.479,212.162 157.347,212.389 156.757 C 212.506 156.453,212.827 156.292,213.104 156.398 C 213.381 156.504,213.711 156.320,213.838 155.989 C 213.965 155.659,214.303 155.478,214.589 155.587 C 214.876 155.697,215.358 155.611,215.660 155.396 C 216.080 155.097,216.025 155.060,215.430 155.238 C 214.654 155.469,214.654 155.466,215.418 154.875 C 215.842 154.548,216.422 154.369,216.708 154.479 C 217.029 154.602,217.121 154.505,216.948 154.226 C 216.762 153.924,216.884 153.856,217.314 154.021 C 217.712 154.174,217.924 154.087,217.866 153.795 C 217.815 153.534,218.079 153.344,218.453 153.374 C 218.839 153.404,219.022 153.249,218.877 153.015 C 218.712 152.748,218.882 152.701,219.358 152.884 C 219.762 153.039,219.968 153.040,219.814 152.887 C 219.419 152.492,221.829 151.098,222.349 151.419 C 222.626 151.590,222.664 151.500,222.457 151.166 C 222.226 150.791,222.315 150.717,222.783 150.896 C 223.181 151.049,223.392 150.962,223.335 150.670 C 223.284 150.409,223.548 150.219,223.922 150.249 C 224.308 150.279,224.491 150.124,224.346 149.890 C 224.185 149.630,224.339 149.572,224.761 149.734 C 225.213 149.907,225.340 149.843,225.152 149.539 C 224.966 149.238,225.086 149.168,225.509 149.331 C 225.860 149.465,226.268 149.380,226.415 149.141 C 226.587 148.863,226.486 148.809,226.135 148.992 C 225.833 149.149,225.932 148.996,226.356 148.653 C 226.780 148.310,227.360 148.119,227.646 148.229 C 227.967 148.352,228.059 148.255,227.886 147.976 C 227.700 147.676,227.820 147.606,228.244 147.768 C 228.594 147.903,229.002 147.817,229.149 147.579 C 229.321 147.301,229.221 147.247,228.869 147.430 C 228.567 147.586,228.667 147.434,229.090 147.091 C 229.514 146.748,230.094 146.557,230.380 146.667 C 230.701 146.790,230.793 146.693,230.620 146.414 C 230.435 146.113,230.555 146.043,230.978 146.206 C 231.329 146.340,231.736 146.255,231.884 146.016 C 232.056 145.738,231.955 145.684,231.603 145.867 C 231.302 146.024,231.401 145.871,231.825 145.528 C 232.248 145.185,232.817 144.990,233.090 145.095 C 233.362 145.199,233.543 145.071,233.491 144.810 C 233.440 144.549,233.704 144.360,234.078 144.389 C 234.464 144.420,234.647 144.265,234.502 144.030 C 234.341 143.770,234.495 143.713,234.917 143.874 C 235.369 144.048,235.496 143.984,235.308 143.679 C 235.121 143.378,235.243 143.309,235.673 143.474 C 236.071 143.627,236.283 143.540,236.226 143.248 C 236.175 142.987,236.439 142.798,236.812 142.827 C 237.199 142.857,237.382 142.702,237.236 142.468 C 237.076 142.208,237.230 142.150,237.652 142.312 C 238.103 142.485,238.231 142.422,238.042 142.117 C 237.856 141.815,237.978 141.747,238.408 141.912 C 238.806 142.064,239.017 141.978,238.960 141.685 C 238.909 141.424,239.173 141.235,239.547 141.264 C 239.933 141.295,240.116 141.140,239.971 140.905 C 239.806 140.638,239.976 140.592,240.451 140.775 C 240.856 140.930,241.062 140.932,240.909 140.778 C 240.502 140.371,242.108 139.358,242.639 139.686 C 242.939 139.871,242.982 139.791,242.770 139.447 C 242.538 139.072,242.628 138.998,243.095 139.177 C 243.493 139.330,243.705 139.243,243.648 138.951 C 243.597 138.690,243.860 138.501,244.234 138.530 C 244.620 138.561,244.803 138.406,244.658 138.171 C 244.493 137.904,244.663 137.858,245.139 138.040 C 245.544 138.195,245.749 138.197,245.596 138.044 C 245.189 137.637,246.795 136.623,247.327 136.952 C 247.598 137.120,247.671 137.059,247.510 136.799 C 247.180 136.265,248.679 135.409,249.287 135.784 C 249.579 135.965,249.621 135.882,249.410 135.541 C 249.179 135.166,249.268 135.092,249.736 135.271 C 250.134 135.424,250.346 135.337,250.288 135.045 C 250.237 134.784,250.501 134.594,250.875 134.624 C 251.261 134.654,251.444 134.499,251.299 134.265 C 251.138 134.005,251.292 133.947,251.714 134.109 C 252.166 134.282,252.293 134.218,252.105 133.914 C 251.916 133.609,252.044 133.545,252.495 133.718 C 252.877 133.865,253.067 133.816,252.937 133.606 C 252.652 133.145,254.958 131.911,255.490 132.240 C 255.704 132.372,255.830 132.247,255.771 131.963 C 255.712 131.677,255.968 131.469,256.343 131.499 C 256.730 131.529,256.913 131.374,256.768 131.140 C 256.607 130.880,256.761 130.822,257.183 130.984 C 257.634 131.157,257.762 131.093,257.573 130.789 C 257.390 130.492,257.505 130.417,257.906 130.571 C 258.242 130.700,258.843 130.544,259.239 130.225 C 259.904 129.690,259.884 129.678,258.984 130.078 C 258.052 130.492,258.042 130.484,258.778 129.896 C 259.201 129.557,259.771 129.365,260.043 129.470 C 260.315 129.574,260.496 129.446,260.445 129.185 C 260.393 128.924,260.657 128.735,261.031 128.764 C 261.417 128.795,261.600 128.640,261.455 128.405 C 261.295 128.145,261.448 128.088,261.870 128.249 C 262.322 128.423,262.449 128.359,262.261 128.054 C 262.075 127.753,262.197 127.684,262.627 127.849 C 263.024 128.002,263.236 127.915,263.179 127.623 C 263.128 127.362,263.392 127.173,263.765 127.202 C 264.152 127.232,264.335 127.077,264.190 126.843 C 264.029 126.583,264.183 126.525,264.605 126.687 C 265.056 126.860,265.184 126.797,264.995 126.492 C 264.810 126.191,264.930 126.121,265.353 126.284 C 265.704 126.418,266.111 126.333,266.259 126.094 C 266.431 125.816,266.330 125.763,265.978 125.945 C 265.677 126.102,265.776 125.949,266.200 125.606 C 266.623 125.263,267.204 125.073,267.490 125.182 C 267.775 125.292,267.902 125.208,267.771 124.996 C 267.552 124.641,268.089 124.436,268.877 124.573 C 269.054 124.604,269.112 124.488,269.006 124.317 C 268.900 124.145,269.523 123.596,270.391 123.096 C 271.259 122.597,271.839 122.399,271.680 122.657 C 271.457 123.016,271.583 123.022,272.218 122.681 C 272.674 122.438,273.047 122.039,273.047 121.796 C 273.047 121.553,273.152 121.459,273.280 121.587 C 273.541 121.848,273.327 121.967,283.143 116.090 L 290.310 111.799 288.907 110.845 C 288.136 110.321,287.630 109.766,287.783 109.613 C 287.937 109.459,287.731 109.461,287.326 109.616 C 286.775 109.828,286.671 109.769,286.910 109.381 C 287.123 109.037,287.079 108.957,286.780 109.142 C 286.248 109.470,284.642 108.457,285.049 108.050 C 285.202 107.897,284.997 107.898,284.592 108.054 C 284.083 108.249,283.943 108.196,284.136 107.883 C 284.324 107.578,284.197 107.515,283.745 107.688 C 283.323 107.850,283.170 107.792,283.330 107.532 C 283.475 107.298,283.292 107.143,282.906 107.173 C 282.532 107.202,282.268 107.013,282.320 106.752 C 282.371 106.492,282.190 106.364,281.918 106.468 C 281.646 106.572,281.076 106.377,280.653 106.034 C 280.229 105.691,280.130 105.539,280.431 105.695 C 280.783 105.878,280.884 105.824,280.712 105.546 C 280.564 105.308,280.225 105.196,279.957 105.299 C 279.689 105.402,279.123 105.205,278.700 104.862 C 278.276 104.520,278.177 104.367,278.478 104.524 C 278.830 104.706,278.931 104.653,278.759 104.374 C 278.611 104.136,278.204 104.050,277.853 104.185 C 277.393 104.362,277.304 104.286,277.535 103.912 C 277.748 103.568,277.704 103.488,277.405 103.673 C 276.873 104.002,275.267 102.988,275.674 102.581 C 275.827 102.428,275.622 102.430,275.217 102.585 C 274.666 102.796,274.561 102.738,274.801 102.350 C 275.014 102.006,274.970 101.926,274.670 102.111 C 274.139 102.439,272.533 101.425,272.940 101.019 C 273.093 100.865,272.887 100.867,272.483 101.022 C 271.974 101.217,271.833 101.165,272.027 100.852 C 272.199 100.573,272.107 100.476,271.786 100.599 C 271.501 100.709,270.920 100.531,270.497 100.203 C 269.732 99.612,269.732 99.609,270.508 99.841 C 271.121 100.024,271.167 99.987,270.722 99.672 C 270.410 99.451,269.990 99.372,269.789 99.496 C 269.588 99.620,269.081 99.301,268.663 98.787 C 268.244 98.272,268.025 98.089,268.177 98.379 C 268.400 98.804,268.293 98.820,267.625 98.463 C 267.170 98.219,266.797 97.850,266.797 97.643 C 266.797 97.435,266.665 97.300,266.504 97.343 C 265.890 97.505,264.452 96.802,264.672 96.447 C 264.798 96.242,264.757 96.100,264.580 96.130 C 263.792 96.267,263.255 96.062,263.474 95.708 C 263.616 95.478,263.440 95.426,263.042 95.579 C 262.551 95.767,262.457 95.697,262.692 95.319 C 262.904 94.975,262.860 94.894,262.561 95.079 C 262.006 95.423,260.440 94.389,260.842 93.945 C 261.002 93.769,260.913 93.751,260.645 93.905 C 260.081 94.230,258.461 93.232,258.877 92.815 C 259.031 92.662,258.825 92.664,258.420 92.819 C 257.869 93.031,257.764 92.972,258.004 92.584 C 258.217 92.240,258.173 92.160,257.874 92.345 C 257.342 92.673,255.736 91.660,256.143 91.253 C 256.296 91.100,256.090 91.101,255.686 91.257 C 255.210 91.439,255.040 91.393,255.205 91.126 C 255.350 90.891,255.167 90.736,254.781 90.767 C 254.407 90.796,254.143 90.607,254.195 90.346 C 254.252 90.054,254.040 89.967,253.642 90.120 C 253.175 90.299,253.085 90.225,253.317 89.850 C 253.529 89.506,253.485 89.426,253.186 89.611 C 252.655 89.939,251.049 88.925,251.455 88.519 C 251.609 88.365,251.403 88.367,250.998 88.522 C 250.522 88.705,250.353 88.659,250.518 88.392 C 250.663 88.157,250.480 88.002,250.093 88.032 C 249.720 88.062,249.456 87.873,249.507 87.612 C 249.558 87.351,249.356 87.231,249.058 87.345 C 248.760 87.460,248.384 87.338,248.221 87.076 C 248.020 86.750,248.089 86.699,248.438 86.914 C 248.769 87.119,248.854 87.077,248.681 86.796 C 248.533 86.558,248.126 86.472,247.775 86.607 C 247.315 86.784,247.226 86.708,247.457 86.334 C 247.666 85.997,247.626 85.910,247.343 86.085 C 247.104 86.233,245.934 85.804,244.743 85.132 C 242.608 83.927,241.746 83.163,243.457 83.992 C 244.277 84.390,244.288 84.379,243.614 83.837 C 243.218 83.518,242.617 83.362,242.281 83.492 C 241.907 83.635,241.768 83.566,241.924 83.314 C 242.069 83.079,241.886 82.924,241.500 82.954 C 241.126 82.984,240.862 82.794,240.913 82.534 C 240.971 82.241,240.759 82.154,240.361 82.307 C 239.960 82.461,239.812 82.398,239.971 82.142 C 240.116 81.907,239.933 81.752,239.547 81.782 C 239.173 81.812,238.909 81.623,238.960 81.362 C 239.017 81.069,238.806 80.982,238.408 81.135 C 237.940 81.315,237.851 81.240,238.082 80.865 C 238.295 80.521,238.251 80.441,237.952 80.626 C 237.420 80.955,235.814 79.941,236.221 79.534 C 236.374 79.381,236.169 79.383,235.764 79.538 C 235.288 79.720,235.118 79.674,235.283 79.407 C 235.428 79.173,235.245 79.018,234.859 79.048 C 234.485 79.077,234.222 78.888,234.273 78.627 C 234.330 78.335,234.118 78.248,233.720 78.401 C 233.290 78.566,233.168 78.497,233.355 78.196 C 233.543 77.891,233.416 77.827,232.964 78.001 C 232.542 78.162,232.388 78.105,232.549 77.845 C 232.694 77.610,232.511 77.455,232.125 77.486 C 231.749 77.515,231.493 77.308,231.553 77.022 C 231.612 76.737,231.480 76.616,231.260 76.751 C 230.764 77.058,229.198 76.011,229.580 75.628 C 229.734 75.475,229.528 75.476,229.123 75.632 C 228.615 75.827,228.474 75.774,228.667 75.461 C 228.856 75.157,228.728 75.093,228.277 75.266 C 227.855 75.428,227.701 75.370,227.861 75.110 C 228.007 74.876,227.824 74.721,227.437 74.751 C 227.064 74.781,226.800 74.591,226.851 74.330 C 226.908 74.038,226.696 73.951,226.298 74.104 C 225.897 74.258,225.750 74.195,225.908 73.939 C 226.053 73.704,225.870 73.549,225.484 73.579 C 225.110 73.609,224.847 73.419,224.898 73.159 C 224.955 72.866,224.743 72.779,224.345 72.932 C 223.944 73.086,223.796 73.023,223.955 72.767 C 224.100 72.532,223.917 72.377,223.531 72.407 C 223.157 72.437,222.893 72.248,222.945 71.987 C 223.002 71.694,222.790 71.607,222.392 71.760 C 221.925 71.940,221.835 71.865,222.067 71.490 C 222.279 71.146,222.235 71.066,221.936 71.251 C 221.381 71.594,219.815 70.561,220.217 70.117 C 220.377 69.941,220.288 69.923,220.020 70.077 C 219.431 70.416,217.853 69.399,218.264 68.945 C 218.424 68.769,218.335 68.751,218.067 68.905 C 217.502 69.230,215.883 68.232,216.299 67.815 C 216.452 67.662,216.247 67.664,215.842 67.819 C 215.333 68.014,215.193 67.962,215.386 67.649 C 215.574 67.344,215.447 67.280,214.995 67.454 C 214.573 67.616,214.420 67.558,214.580 67.298 C 214.725 67.063,214.542 66.908,214.156 66.939 C 213.780 66.968,213.525 66.761,213.584 66.475 C 213.643 66.190,213.511 66.069,213.292 66.205 C 212.772 66.526,211.244 65.458,211.624 65.039 C 211.783 64.863,211.695 64.845,211.426 64.999 C 210.862 65.324,209.242 64.326,209.659 63.909 C 209.812 63.756,209.606 63.758,209.201 63.913 C 208.650 64.125,208.546 64.066,208.785 63.678 C 208.998 63.334,208.954 63.254,208.655 63.439 C 208.100 63.782,206.534 62.749,206.936 62.305 C 207.096 62.128,207.007 62.110,206.739 62.265 C 206.174 62.590,204.555 61.591,204.971 61.175 C 205.124 61.022,204.919 61.023,204.514 61.179 C 204.038 61.361,203.868 61.315,204.033 61.048 C 204.178 60.813,203.995 60.658,203.609 60.689 C 203.235 60.718,202.972 60.529,203.023 60.268 C 203.080 59.976,202.868 59.889,202.470 60.041 C 202.069 60.195,201.921 60.133,202.080 59.876 C 202.225 59.641,202.042 59.486,201.656 59.517 C 201.282 59.546,201.018 59.357,201.070 59.096 C 201.127 58.804,200.915 58.717,200.517 58.870 C 200.038 59.054,199.955 58.975,200.194 58.562 C 200.371 58.257,200.387 58.124,200.229 58.265 C 200.070 58.407,199.403 58.368,198.746 58.179 C 198.088 57.991,197.661 57.947,197.796 58.082 M199.770 92.424 C 200.109 92.554,200.301 92.798,200.197 92.966 C 200.093 93.134,200.314 93.247,200.688 93.218 C 201.064 93.188,201.319 93.395,201.260 93.681 C 201.201 93.966,201.329 94.090,201.545 93.956 C 202.116 93.603,203.585 94.493,203.271 95.002 C 203.110 95.262,203.183 95.323,203.454 95.155 C 204.028 94.800,206.286 96.110,205.973 96.616 C 205.844 96.826,205.941 96.871,206.189 96.717 C 206.720 96.389,208.326 97.403,207.920 97.810 C 207.766 97.963,207.972 97.961,208.377 97.806 C 208.853 97.623,209.022 97.669,208.857 97.936 C 208.712 98.171,208.895 98.326,209.282 98.296 C 209.655 98.266,209.919 98.456,209.868 98.716 C 209.811 99.009,210.022 99.096,210.420 98.943 C 210.850 98.778,210.972 98.846,210.786 99.148 C 210.597 99.453,210.725 99.517,211.177 99.343 C 211.667 99.155,211.761 99.225,211.527 99.603 C 211.316 99.944,211.359 100.027,211.650 99.847 C 212.258 99.471,213.757 100.327,213.427 100.861 C 213.266 101.121,213.339 101.182,213.611 101.014 C 214.180 100.662,218.391 103.148,218.079 103.653 C 217.952 103.859,218.047 103.904,218.291 103.753 C 218.899 103.378,220.398 104.233,220.068 104.767 C 219.907 105.027,219.980 105.088,220.251 104.921 C 220.783 104.592,222.389 105.606,221.982 106.013 C 221.829 106.166,222.035 106.164,222.439 106.009 C 222.948 105.814,223.089 105.866,222.895 106.179 C 222.707 106.484,222.834 106.548,223.286 106.374 C 223.708 106.213,223.862 106.270,223.701 106.530 C 223.556 106.765,223.739 106.920,224.125 106.889 C 224.501 106.860,224.757 107.067,224.697 107.353 C 224.638 107.638,224.767 107.761,224.982 107.628 C 225.511 107.301,227.034 108.147,226.748 108.609 C 226.621 108.816,226.814 108.863,227.192 108.718 C 227.683 108.530,227.777 108.600,227.543 108.978 C 227.330 109.322,227.374 109.402,227.673 109.217 C 228.205 108.889,229.811 109.903,229.404 110.310 C 229.251 110.463,229.389 110.487,229.711 110.364 C 230.032 110.240,230.642 110.420,231.066 110.763 C 231.489 111.105,231.589 111.258,231.287 111.101 C 230.923 110.913,230.834 110.971,231.021 111.274 C 231.177 111.526,231.452 111.640,231.632 111.529 C 232.087 111.247,233.242 111.731,233.010 112.106 C 232.906 112.274,233.127 112.388,233.500 112.358 C 233.874 112.329,234.133 112.533,234.076 112.812 C 234.019 113.090,234.195 113.267,234.466 113.205 C 235.337 113.005,235.239 113.847,234.320 114.453 C 233.530 114.974,233.466 114.974,233.742 114.453 C 233.913 114.131,233.709 114.288,233.291 114.802 C 232.868 115.321,232.331 115.615,232.085 115.463 C 231.841 115.312,231.641 115.385,231.641 115.625 C 231.641 115.865,231.460 115.950,231.240 115.814 C 231.020 115.678,230.888 115.800,230.947 116.084 C 231.007 116.370,230.751 116.578,230.375 116.548 C 229.989 116.518,229.806 116.673,229.951 116.907 C 230.112 117.167,229.958 117.225,229.536 117.063 C 229.084 116.890,228.957 116.953,229.145 117.258 C 229.334 117.563,229.206 117.627,228.755 117.454 C 228.303 117.280,228.176 117.344,228.364 117.649 C 228.550 117.951,228.428 118.019,227.998 117.854 C 227.601 117.701,227.389 117.788,227.446 118.080 C 227.497 118.341,227.233 118.531,226.860 118.501 C 226.473 118.471,226.290 118.626,226.435 118.860 C 226.596 119.120,226.442 119.178,226.020 119.016 C 225.569 118.843,225.441 118.907,225.630 119.211 C 225.815 119.512,225.695 119.582,225.272 119.419 C 224.921 119.285,224.514 119.370,224.366 119.609 C 224.194 119.887,224.295 119.941,224.647 119.758 C 224.948 119.601,224.849 119.754,224.425 120.097 C 224.002 120.440,223.421 120.631,223.135 120.521 C 222.814 120.398,222.723 120.495,222.895 120.774 C 223.082 121.076,222.960 121.144,222.530 120.979 C 222.132 120.826,221.920 120.913,221.977 121.205 C 222.028 121.466,221.807 121.680,221.484 121.680 C 221.162 121.680,220.577 122.001,220.185 122.393 C 219.792 122.786,219.226 123.013,218.928 122.899 C 218.629 122.784,218.264 122.886,218.116 123.124 C 217.944 123.403,218.045 123.456,218.397 123.274 C 218.698 123.117,218.599 123.270,218.175 123.612 C 217.752 123.955,217.183 124.151,216.910 124.046 C 216.638 123.942,216.457 124.070,216.509 124.330 C 216.560 124.591,216.296 124.781,215.922 124.751 C 215.536 124.721,215.353 124.876,215.498 125.110 C 215.659 125.370,215.505 125.428,215.083 125.266 C 214.631 125.093,214.504 125.157,214.692 125.461 C 214.886 125.774,214.745 125.827,214.236 125.632 C 213.831 125.476,213.626 125.475,213.779 125.628 C 214.186 126.035,212.580 127.048,212.048 126.720 C 211.749 126.535,211.705 126.615,211.918 126.959 C 212.149 127.334,212.060 127.408,211.592 127.229 C 211.194 127.076,210.983 127.163,211.040 127.455 C 211.091 127.716,210.827 127.906,210.453 127.876 C 210.067 127.846,209.884 128.001,210.029 128.235 C 210.194 128.502,210.024 128.549,209.549 128.366 C 209.144 128.211,208.938 128.209,209.091 128.362 C 209.498 128.769,207.892 129.783,207.361 129.454 C 207.061 129.269,207.018 129.350,207.230 129.694 C 207.464 130.072,207.371 130.142,206.880 129.954 C 206.428 129.780,206.301 129.844,206.489 130.149 C 206.675 130.451,206.553 130.519,206.123 130.354 C 205.726 130.201,205.514 130.288,205.571 130.580 C 205.622 130.841,205.358 131.031,204.985 131.001 C 204.598 130.971,204.415 131.126,204.560 131.360 C 204.721 131.620,204.567 131.678,204.145 131.516 C 203.777 131.375,203.563 131.400,203.669 131.573 C 203.926 131.988,201.667 133.314,201.198 133.024 C 200.999 132.901,200.708 133.006,200.553 133.257 C 200.365 133.560,200.455 133.619,200.819 133.430 C 201.120 133.273,201.021 133.426,200.597 133.769 C 200.174 134.112,199.593 134.302,199.307 134.193 C 198.986 134.070,198.895 134.166,199.067 134.446 C 199.254 134.747,199.132 134.816,198.702 134.651 C 198.304 134.498,198.092 134.585,198.149 134.877 C 198.200 135.138,197.936 135.327,197.563 135.298 C 197.176 135.268,196.993 135.423,197.139 135.657 C 197.304 135.924,197.134 135.970,196.658 135.788 C 196.253 135.633,196.048 135.631,196.201 135.784 C 196.617 136.201,194.998 137.199,194.433 136.874 C 194.165 136.720,194.077 136.738,194.237 136.915 C 194.635 137.355,192.256 138.755,191.676 138.422 C 191.420 138.276,191.342 138.300,191.501 138.477 C 191.904 138.921,190.338 139.954,189.783 139.611 C 189.483 139.426,189.440 139.506,189.652 139.850 C 189.886 140.229,189.792 140.298,189.302 140.110 C 188.850 139.937,188.722 140.000,188.911 140.305 C 189.097 140.607,188.975 140.675,188.545 140.510 C 188.147 140.357,187.936 140.444,187.993 140.737 C 188.044 140.998,187.785 141.188,187.418 141.159 C 187.050 141.131,186.786 141.307,186.832 141.550 C 186.877 141.793,186.608 141.968,186.235 141.939 C 185.848 141.908,185.665 142.063,185.810 142.298 C 185.971 142.558,185.817 142.616,185.395 142.454 C 185.027 142.312,184.821 142.352,184.938 142.542 C 185.188 142.945,184.067 143.457,183.585 143.159 C 183.405 143.047,183.130 143.162,182.974 143.413 C 182.787 143.717,182.877 143.775,183.240 143.586 C 183.542 143.430,183.443 143.582,183.019 143.925 C 182.595 144.268,182.015 144.459,181.729 144.349 C 181.408 144.226,181.316 144.323,181.489 144.602 C 181.675 144.904,181.553 144.972,181.123 144.807 C 180.726 144.654,180.514 144.741,180.571 145.034 C 180.622 145.294,180.358 145.484,179.985 145.454 C 179.598 145.424,179.415 145.579,179.560 145.814 C 179.721 146.073,179.567 146.131,179.145 145.969 C 178.767 145.824,178.574 145.872,178.702 146.079 C 179.008 146.575,177.449 147.372,176.847 147.026 C 176.583 146.874,176.498 146.894,176.659 147.071 C 177.049 147.501,174.680 148.918,174.135 148.581 C 173.859 148.410,173.821 148.500,174.027 148.834 C 174.259 149.209,174.169 149.283,173.702 149.104 C 173.304 148.951,173.092 149.038,173.149 149.330 C 173.200 149.591,172.923 149.778,172.533 149.746 C 172.142 149.714,171.923 149.788,172.045 149.910 C 172.370 150.235,169.205 152.039,168.776 151.774 C 168.577 151.651,168.286 151.756,168.131 152.007 C 167.954 152.293,168.017 152.360,168.299 152.186 C 168.547 152.032,168.750 152.001,168.750 152.115 C 168.750 152.496,166.389 153.551,166.031 153.330 C 165.837 153.210,165.552 153.318,165.396 153.570 C 165.209 153.873,165.298 153.931,165.662 153.742 C 165.964 153.586,165.864 153.738,165.441 154.081 C 165.017 154.424,164.448 154.619,164.176 154.515 C 163.904 154.410,163.723 154.516,163.774 154.750 C 163.825 154.984,163.623 155.265,163.325 155.373 C 162.951 155.509,162.879 155.402,163.094 155.031 C 163.266 154.735,163.287 154.598,163.141 154.728 C 162.995 154.857,162.881 172.227,162.887 193.327 C 162.895 219.598,162.771 231.613,162.495 231.442 C 161.800 231.013,159.725 226.553,160.008 226.096 C 160.183 225.812,160.097 225.772,159.760 225.980 C 159.381 226.214,159.311 226.121,159.499 225.630 C 159.648 225.243,159.598 225.057,159.383 225.191 C 158.886 225.498,155.757 219.241,156.105 218.636 C 156.253 218.376,156.231 218.295,156.055 218.455 C 155.611 218.857,154.577 217.291,154.921 216.736 C 155.106 216.436,155.025 216.393,154.681 216.605 C 154.303 216.839,154.233 216.746,154.421 216.255 C 154.563 215.886,154.534 215.674,154.357 215.783 C 153.915 216.057,152.658 213.330,152.984 212.803 C 153.152 212.531,153.061 212.494,152.728 212.699 C 152.350 212.933,152.280 212.839,152.468 212.348 C 152.610 211.980,152.565 211.777,152.368 211.899 C 151.893 212.193,148.729 205.946,149.072 205.391 C 149.219 205.152,149.169 205.063,148.960 205.192 C 148.454 205.505,147.144 203.247,147.499 202.673 C 147.684 202.374,147.604 202.330,147.260 202.543 C 146.881 202.777,146.811 202.683,146.999 202.192 C 147.173 201.741,147.109 201.613,146.804 201.802 C 146.499 201.990,146.435 201.863,146.609 201.411 C 146.782 200.959,146.718 200.832,146.414 201.020 C 146.112 201.207,146.044 201.085,146.209 200.655 C 146.361 200.257,146.274 200.045,145.982 200.102 C 145.721 200.153,145.532 199.890,145.561 199.516 C 145.592 199.130,145.437 198.947,145.202 199.092 C 144.942 199.252,144.884 199.098,145.046 198.677 C 145.188 198.308,145.155 198.098,144.975 198.210 C 144.531 198.484,143.672 196.536,144.001 196.004 C 144.144 195.772,144.093 195.686,143.887 195.814 C 143.373 196.131,140.895 191.536,141.249 190.921 C 141.404 190.651,141.387 190.560,141.211 190.720 C 140.767 191.122,139.734 189.557,140.077 189.001 C 140.262 188.702,140.182 188.658,139.838 188.871 C 139.459 189.105,139.389 189.011,139.578 188.520 C 139.719 188.152,139.679 187.946,139.490 188.063 C 139.046 188.338,138.589 187.170,138.926 186.623 C 139.089 186.359,138.994 186.324,138.666 186.527 C 138.291 186.759,138.217 186.669,138.396 186.202 C 138.549 185.804,138.462 185.592,138.170 185.649 C 137.909 185.700,137.719 185.436,137.749 185.063 C 137.779 184.676,137.624 184.493,137.390 184.639 C 137.130 184.799,137.072 184.645,137.234 184.223 C 137.375 183.855,137.343 183.645,137.162 183.757 C 136.719 184.030,135.859 182.083,136.188 181.551 C 136.355 181.281,136.263 181.244,135.931 181.449 C 135.553 181.683,135.483 181.589,135.671 181.098 C 135.817 180.720,135.769 180.527,135.562 180.655 C 135.075 180.956,134.263 179.403,134.613 178.838 C 134.793 178.546,134.710 178.504,134.369 178.715 C 133.990 178.949,133.921 178.855,134.109 178.364 C 134.250 177.995,134.211 177.790,134.021 177.907 C 133.577 178.182,133.120 177.013,133.458 176.467 C 133.599 176.238,133.549 176.154,133.346 176.279 C 132.850 176.586,130.740 172.774,131.092 172.205 C 131.249 171.952,131.200 171.859,130.983 171.994 C 130.471 172.310,128.777 169.276,129.138 168.691 C 129.324 168.390,129.245 168.345,128.900 168.558 C 128.521 168.793,128.452 168.699,128.640 168.208 C 128.788 167.823,128.739 167.636,128.525 167.768 C 128.028 168.075,126.068 164.164,126.416 163.560 C 126.565 163.299,126.544 163.217,126.367 163.376 C 125.923 163.779,124.890 162.213,125.233 161.658 C 125.418 161.358,125.338 161.315,124.994 161.527 C 124.615 161.761,124.546 161.667,124.734 161.177 C 124.875 160.808,124.843 160.598,124.662 160.710 C 124.210 160.989,123.364 159.036,123.690 158.467 C 123.835 158.214,123.806 158.142,123.625 158.306 C 123.207 158.686,120.263 153.493,120.510 152.812 C 120.611 152.532,120.549 152.393,120.371 152.503 C 119.904 152.791,118.258 149.699,118.591 149.160 C 118.777 148.858,118.698 148.814,118.353 149.027 C 117.975 149.261,117.905 149.167,118.093 148.677 C 118.267 148.225,118.203 148.097,117.898 148.286 C 117.593 148.474,117.529 148.347,117.703 147.895 C 117.876 147.444,117.812 147.316,117.507 147.505 C 117.202 147.693,117.139 147.566,117.312 147.114 C 117.453 146.745,117.409 146.543,117.214 146.664 C 116.757 146.946,115.557 144.567,115.887 144.033 C 116.042 143.781,115.941 143.750,115.619 143.949 C 115.244 144.181,115.170 144.091,115.349 143.623 C 115.502 143.226,115.415 143.014,115.123 143.071 C 114.862 143.122,114.644 142.900,114.638 142.578 C 114.632 142.256,114.495 141.780,114.333 141.521 C 113.953 140.915,115.797 139.670,116.487 140.068 C 116.765 140.228,116.861 140.215,116.702 140.039 C 116.290 139.585,117.868 138.568,118.458 138.907 C 118.726 139.061,118.815 139.044,118.655 138.867 C 118.253 138.423,119.818 137.390,120.374 137.733 C 120.673 137.918,120.717 137.838,120.504 137.494 C 120.270 137.115,120.364 137.046,120.855 137.234 C 121.233 137.379,121.426 137.332,121.298 137.124 C 120.997 136.637,122.550 135.826,123.115 136.175 C 123.380 136.338,123.451 136.275,123.292 136.017 C 122.961 135.483,124.461 134.628,125.068 135.003 C 125.360 135.184,125.402 135.100,125.192 134.760 C 124.957 134.381,125.051 134.311,125.542 134.499 C 125.911 134.641,126.125 134.615,126.018 134.442 C 125.733 133.982,128.047 132.718,128.577 133.046 C 128.876 133.231,128.920 133.150,128.707 132.806 C 128.476 132.432,128.565 132.357,129.033 132.537 C 129.431 132.689,129.642 132.603,129.585 132.310 C 129.534 132.049,129.798 131.860,130.172 131.889 C 130.558 131.920,130.741 131.765,130.596 131.530 C 130.431 131.263,130.601 131.217,131.076 131.400 C 131.481 131.555,131.687 131.557,131.534 131.403 C 131.127 130.996,132.733 129.983,133.264 130.311 C 133.513 130.465,133.609 130.419,133.480 130.210 C 133.167 129.704,135.425 128.394,135.999 128.749 C 136.298 128.934,136.342 128.854,136.129 128.510 C 135.895 128.131,135.989 128.061,136.480 128.249 C 136.848 128.391,137.062 128.365,136.956 128.192 C 136.699 127.778,138.958 126.452,139.427 126.742 C 139.626 126.865,139.917 126.760,140.072 126.509 C 140.260 126.205,140.170 126.147,139.806 126.336 C 139.505 126.492,139.604 126.340,140.028 125.997 C 140.451 125.654,141.032 125.463,141.318 125.573 C 141.604 125.683,141.736 125.607,141.611 125.406 C 141.310 124.919,142.863 124.107,143.428 124.456 C 143.720 124.637,143.762 124.554,143.551 124.213 C 143.317 123.834,143.411 123.764,143.902 123.953 C 144.353 124.126,144.481 124.062,144.292 123.757 C 144.099 123.444,144.240 123.392,144.748 123.587 C 145.153 123.742,145.359 123.744,145.205 123.591 C 144.789 123.174,146.409 122.176,146.973 122.501 C 147.242 122.655,147.330 122.637,147.170 122.461 C 146.768 122.017,148.334 120.984,148.889 121.327 C 149.189 121.512,149.232 121.432,149.020 121.088 C 148.786 120.709,148.879 120.639,149.370 120.828 C 149.822 121.001,149.949 120.937,149.761 120.632 C 149.572 120.327,149.700 120.264,150.152 120.437 C 150.530 120.582,150.723 120.535,150.595 120.328 C 150.294 119.840,151.847 119.029,152.412 119.378 C 152.704 119.559,152.746 119.475,152.535 119.135 C 152.304 118.761,152.393 118.685,152.853 118.862 C 153.204 118.996,153.611 118.911,153.759 118.673 C 153.931 118.394,153.830 118.341,153.478 118.523 C 153.177 118.680,153.276 118.527,153.700 118.184 C 154.123 117.841,154.704 117.651,154.990 117.760 C 155.275 117.870,155.407 117.795,155.283 117.593 C 154.982 117.106,156.535 116.295,157.100 116.644 C 157.391 116.824,157.434 116.741,157.223 116.400 C 156.989 116.021,157.083 115.952,157.573 116.140 C 157.942 116.282,158.156 116.256,158.049 116.083 C 157.765 115.622,160.079 114.359,160.608 114.686 C 160.856 114.840,160.953 114.794,160.824 114.585 C 160.505 114.069,162.770 112.775,163.380 113.126 C 163.648 113.280,163.736 113.262,163.577 113.086 C 163.174 112.642,164.740 111.609,165.295 111.952 C 165.595 112.137,165.639 112.057,165.426 111.713 C 165.192 111.334,165.286 111.264,165.777 111.453 C 166.175 111.605,166.350 111.553,166.208 111.324 C 165.869 110.775,166.537 110.845,167.188 111.426 C 167.650 111.838,167.659 111.812,167.247 111.265 C 166.700 110.539,167.259 109.913,168.029 110.389 C 168.329 110.574,168.373 110.494,168.160 110.150 C 167.921 109.762,168.025 109.704,168.576 109.915 C 168.981 110.070,169.187 110.072,169.034 109.919 C 168.627 109.512,170.233 108.498,170.764 108.827 C 171.064 109.012,171.107 108.932,170.895 108.588 C 170.661 108.209,170.754 108.139,171.245 108.328 C 171.697 108.501,171.824 108.437,171.636 108.132 C 171.450 107.831,171.572 107.762,172.002 107.927 C 172.399 108.080,172.611 107.993,172.554 107.701 C 172.503 107.440,172.767 107.251,173.140 107.280 C 173.527 107.311,173.710 107.156,173.565 106.921 C 173.406 106.664,173.553 106.602,173.955 106.755 C 174.353 106.908,174.564 106.821,174.507 106.529 C 174.456 106.268,174.720 106.079,175.093 106.108 C 175.480 106.139,175.663 105.984,175.518 105.749 C 175.357 105.489,175.511 105.431,175.933 105.593 C 176.384 105.767,176.512 105.703,176.323 105.398 C 176.137 105.096,176.259 105.028,176.689 105.193 C 177.087 105.346,177.299 105.259,177.241 104.966 C 177.190 104.706,177.454 104.516,177.828 104.546 C 178.214 104.576,178.397 104.421,178.252 104.186 C 178.087 103.919,178.257 103.873,178.733 104.056 C 179.137 104.211,179.343 104.213,179.190 104.060 C 178.783 103.653,180.389 102.639,180.920 102.967 C 181.220 103.152,181.264 103.072,181.051 102.728 C 180.817 102.350,180.911 102.280,181.402 102.468 C 181.853 102.642,181.981 102.578,181.792 102.273 C 181.606 101.972,181.727 101.903,182.150 102.065 C 182.501 102.200,182.908 102.114,183.056 101.876 C 183.228 101.597,183.127 101.544,182.775 101.726 C 182.473 101.883,182.573 101.730,182.997 101.388 C 183.420 101.045,183.989 100.849,184.261 100.954 C 184.534 101.058,184.714 100.930,184.663 100.670 C 184.612 100.409,184.876 100.219,185.250 100.249 C 185.636 100.279,185.819 100.124,185.674 99.890 C 185.513 99.630,185.667 99.572,186.089 99.734 C 186.458 99.875,186.663 99.836,186.546 99.646 C 186.296 99.242,187.417 98.731,187.899 99.029 C 188.079 99.140,188.354 99.026,188.510 98.774 C 188.697 98.471,188.608 98.413,188.244 98.601 C 187.942 98.758,188.042 98.605,188.465 98.263 C 188.889 97.920,189.458 97.724,189.730 97.829 C 190.002 97.933,190.183 97.805,190.132 97.545 C 190.081 97.284,190.345 97.094,190.718 97.124 C 191.105 97.154,191.288 96.999,191.143 96.765 C 190.978 96.498,191.147 96.451,191.623 96.634 C 192.028 96.789,192.234 96.791,192.080 96.638 C 191.674 96.231,193.280 95.217,193.811 95.546 C 194.110 95.731,194.154 95.650,193.942 95.306 C 193.707 94.928,193.801 94.858,194.292 95.046 C 194.671 95.192,194.864 95.144,194.736 94.937 C 194.429 94.441,195.988 93.644,196.590 93.990 C 196.854 94.142,196.937 94.119,196.774 93.940 C 196.611 93.760,196.963 93.294,197.555 92.903 C 198.751 92.115,198.888 92.085,199.770 92.424 " stroke="none" fill="#51647d" fill-rule="evenodd"></path><path id="path2" d="M192.563 61.187 C 189.026 63.243,185.957 65.104,185.742 65.323 C 185.179 65.896,186.528 65.163,192.820 61.477 C 199.347 57.652,198.538 57.813,201.638 59.715 C 202.993 60.546,206.738 62.772,209.961 64.660 C 213.184 66.549,218.545 69.706,221.875 71.676 C 225.205 73.647,229.688 76.282,231.836 77.533 C 233.984 78.784,237.588 80.897,239.844 82.228 C 249.367 87.848,263.652 96.174,266.113 97.540 C 266.274 97.629,266.406 97.516,266.406 97.289 C 266.406 97.061,266.214 96.875,265.978 96.875 C 265.432 96.875,245.943 85.500,245.768 85.080 C 245.697 84.907,245.456 84.766,245.235 84.766 C 244.387 84.766,234.794 78.785,235.030 78.404 C 235.175 78.169,235.084 78.124,234.809 78.294 C 234.426 78.530,226.005 73.728,207.813 62.901 C 207.490 62.709,205.645 61.635,203.711 60.513 C 201.777 59.391,199.925 58.242,199.594 57.961 C 199.082 57.526,198.034 58.006,192.563 61.187 M180.469 68.285 C 177.998 69.742,174.837 71.541,173.445 72.283 C 172.053 73.026,170.721 73.809,170.487 74.023 C 170.252 74.238,169.370 74.766,168.526 75.195 C 167.682 75.625,166.904 76.076,166.797 76.197 C 166.689 76.318,163.613 78.149,159.961 80.266 C 146.699 87.954,129.483 98.149,129.102 98.541 C 128.529 99.130,124.242 101.615,164.648 77.937 C 170.234 74.664,177.134 70.625,179.980 68.963 C 184.393 66.385,185.591 65.599,185.059 65.631 C 185.005 65.634,182.939 66.829,180.469 68.285 M196.323 93.596 C 192.033 96.159,150.347 120.136,143.750 123.835 C 140.306 125.766,123.342 135.515,118.750 138.201 C 116.709 139.395,114.775 140.617,114.453 140.915 C 113.808 141.513,115.350 140.658,125.195 134.955 C 128.848 132.839,132.555 130.720,133.435 130.246 C 134.314 129.772,135.721 128.952,136.560 128.423 C 137.399 127.895,141.338 125.615,145.313 123.356 C 160.203 114.896,185.741 100.219,198.067 93.038 C 198.998 92.496,211.091 98.768,211.654 100.086 C 211.725 100.253,212.010 100.391,212.286 100.391 C 212.562 100.391,214.789 101.592,217.234 103.060 C 224.793 107.598,234.097 112.909,234.239 112.766 C 234.313 112.692,231.869 111.178,228.808 109.401 C 222.483 105.730,214.763 101.218,205.664 95.873 C 198.442 91.632,199.273 91.834,196.323 93.596 M127.539 99.288 C 121.061 102.901,110.462 109.422,113.867 107.699 C 115.182 107.034,128.170 99.304,128.460 99.014 C 128.767 98.707,128.368 98.825,127.539 99.288 M268.750 98.995 C 268.750 99.100,269.585 99.661,270.605 100.241 C 273.030 101.620,283.770 107.856,287.462 110.029 C 289.052 110.965,290.424 111.660,290.510 111.573 C 290.643 111.441,287.499 109.549,280.859 105.766 C 280.107 105.338,278.086 104.158,276.367 103.145 C 271.631 100.353,268.750 98.783,268.750 98.995 M103.841 113.193 C 99.186 115.927,95.231 118.324,95.052 118.520 C 94.638 118.972,94.281 119.170,102.539 114.361 C 111.760 108.991,112.500 108.545,112.500 108.360 C 112.500 108.103,112.622 108.036,103.841 113.193 M234.854 113.225 C 234.913 113.440,234.609 113.903,234.180 114.252 C 233.412 114.876,233.413 114.880,234.256 114.473 C 235.330 113.953,235.681 113.410,235.153 113.084 C 234.929 112.946,234.795 113.009,234.854 113.225 M226.262 118.635 C 223.411 120.265,221.142 121.662,221.218 121.739 C 221.383 121.904,230.806 116.616,231.393 116.029 C 232.088 115.334,231.586 115.589,226.262 118.635 M86.814 123.187 C 82.677 125.619,79.161 127.754,79.001 127.930 C 78.602 128.371,78.562 128.393,87.012 123.455 C 93.443 119.697,94.991 118.716,94.434 118.757 C 94.380 118.761,90.951 120.754,86.814 123.187 M212.500 126.505 C 208.096 129.041,200.449 133.455,195.508 136.314 C 190.566 139.174,183.096 143.491,178.906 145.909 C 174.717 148.326,169.355 151.434,166.992 152.816 L 162.695 155.328 162.590 193.191 L 162.485 231.055 158.470 223.438 C 156.262 219.248,153.163 213.359,151.585 210.352 C 150.007 207.344,147.703 203.037,146.464 200.781 C 143.722 195.785,133.566 177.001,125.872 162.695 C 115.981 144.306,114.771 142.130,114.554 142.347 C 114.437 142.464,114.519 142.783,114.736 143.057 C 115.169 143.602,115.792 144.739,120.902 154.297 C 122.798 157.842,125.928 163.643,127.858 167.188 C 133.502 177.551,148.314 204.991,151.053 210.156 C 151.908 211.768,154.758 217.171,157.388 222.163 C 160.017 227.156,162.331 231.341,162.530 231.464 C 162.750 231.600,162.891 216.831,162.891 193.660 L 162.891 155.632 166.113 153.743 C 167.886 152.703,173.379 149.523,178.320 146.676 C 189.337 140.327,213.550 126.345,217.676 123.949 C 220.218 122.473,221.131 121.830,220.605 121.885 C 220.552 121.891,216.904 123.970,212.500 126.505 M259.375 129.467 C 252.607 133.398,243.291 138.809,238.672 141.492 C 234.053 144.174,226.670 148.431,222.266 150.951 C 217.861 153.471,214.082 155.716,213.867 155.940 C 213.012 156.831,270.716 123.578,271.660 122.636 C 272.351 121.947,271.697 122.310,259.375 129.467 M77.748 128.881 C 77.474 129.393,77.344 151.191,77.344 196.613 L 77.344 263.589 90.086 270.875 C 97.095 274.882,102.898 278.091,102.983 278.006 C 103.068 277.922,97.523 274.658,90.661 270.754 C 83.799 266.850,78.127 263.484,78.057 263.273 C 77.987 263.063,78.018 232.569,78.125 195.508 C 78.232 158.447,78.283 128.125,78.236 128.125 C 78.190 128.125,77.971 128.465,77.748 128.881 M104.557 179.948 C 104.414 180.091,104.300 180.399,104.303 180.632 C 104.307 180.900,104.417 180.885,104.604 180.590 C 104.785 180.306,106.282 182.653,108.466 186.645 C 110.428 190.230,114.446 197.559,117.396 202.930 C 125.756 218.150,135.106 235.384,139.754 244.141 C 140.723 245.967,142.432 249.131,143.551 251.172 C 144.670 253.213,147.224 257.915,149.225 261.621 C 151.227 265.327,152.938 268.285,153.029 268.195 C 153.120 268.104,152.756 267.269,152.221 266.339 C 151.686 265.409,150.736 263.682,150.108 262.500 C 149.481 261.318,147.068 256.836,144.746 252.539 C 142.423 248.242,138.678 241.299,136.422 237.109 C 130.064 225.300,125.017 216.025,118.355 203.906 C 114.989 197.783,111.476 191.367,110.548 189.648 C 107.555 184.104,105.057 179.688,104.915 179.688 C 104.861 179.688,104.701 179.805,104.557 179.948 M104.297 229.655 C 104.297 268.013,104.196 278.101,103.809 278.257 C 103.517 278.375,103.596 278.466,104.004 278.485 C 104.651 278.514,104.688 275.951,104.688 229.883 C 104.688 203.135,104.600 181.250,104.492 181.250 C 104.385 181.250,104.297 203.032,104.297 229.655 M154.212 270.703 C 154.844 271.885,156.292 274.609,157.429 276.758 C 158.566 278.906,160.166 281.807,160.985 283.203 L 162.473 285.742 162.515 299.489 C 162.550 311.285,162.636 313.205,163.119 313.019 C 163.776 312.767,164.934 313.601,164.624 314.102 C 164.508 314.290,164.652 314.352,164.945 314.240 C 165.399 314.066,166.660 314.660,169.531 316.403 C 170.628 317.068,184.959 325.091,185.352 325.259 C 186.913 325.929,182.458 323.256,173.547 318.177 L 163.086 312.215 162.891 298.783 L 162.695 285.352 159.528 279.688 C 157.787 276.572,155.911 273.145,155.360 272.070 C 154.810 270.996,154.068 269.766,153.711 269.336 C 153.355 268.906,153.581 269.521,154.212 270.703 M185.938 325.566 C 185.938 325.673,186.465 326.034,187.109 326.367 C 187.754 326.700,188.281 326.885,188.281 326.778 C 188.281 326.670,187.754 326.310,187.109 325.977 C 186.465 325.643,185.938 325.458,185.938 325.566 " stroke="none" fill="#232b34" fill-rule="evenodd"></path><path id="path3" d="M291.406 112.233 C 291.943 112.514,293.218 113.232,294.238 113.831 C 295.259 114.429,296.094 114.834,296.094 114.731 C 296.094 114.434,291.399 111.718,290.890 111.721 C 290.637 111.722,290.869 111.953,291.406 112.233 M302.344 118.545 C 302.344 118.647,302.915 119.007,303.613 119.345 L 304.883 119.961 303.961 119.160 C 303.097 118.410,302.344 118.123,302.344 118.545 M305.078 120.046 C 305.078 120.164,306.616 121.178,308.496 122.301 C 312.658 124.786,312.500 124.701,312.500 124.454 C 312.500 124.344,311.226 123.513,309.668 122.609 C 308.110 121.704,306.440 120.709,305.957 120.398 C 305.474 120.087,305.078 119.928,305.078 120.046 M273.137 122.461 C 272.878 124.463,272.887 200.706,273.146 200.447 C 273.309 200.285,273.396 182.496,273.340 160.916 C 273.284 139.336,273.193 122.031,273.137 122.461 M312.691 193.945 C 312.691 231.973,312.737 247.471,312.793 228.387 C 312.849 209.303,312.849 178.189,312.793 159.246 C 312.737 140.303,312.691 155.918,312.691 193.945 M212.891 195.508 C 212.891 216.956,212.973 234.423,213.073 234.323 C 213.350 234.046,213.409 157.029,213.132 156.752 C 212.999 156.619,212.891 174.059,212.891 195.508 M244.729 161.714 C 244.598 161.927,244.720 162.014,244.999 161.907 C 245.297 161.794,246.068 162.537,246.856 163.695 C 247.597 164.785,248.368 165.777,248.568 165.901 C 248.768 166.025,248.199 165.047,247.303 163.727 C 245.691 161.354,245.193 160.964,244.729 161.714 M249.859 168.066 C 250.556 169.218,252.822 172.266,252.981 172.266 C 253.076 172.266,252.438 171.211,251.563 169.922 C 250.215 167.937,248.939 166.548,249.859 168.066 M254.297 174.414 C 254.962 175.381,255.594 176.172,255.702 176.172 C 255.809 176.172,255.353 175.381,254.688 174.414 C 254.022 173.447,253.390 172.656,253.283 172.656 C 253.175 172.656,253.632 173.447,254.297 174.414 M257.813 179.492 C 258.478 180.459,259.110 181.250,259.217 181.250 C 259.325 181.250,258.868 180.459,258.203 179.492 C 257.538 178.525,256.906 177.734,256.798 177.734 C 256.691 177.734,257.147 178.525,257.813 179.492 M236.589 180.534 C 236.235 181.434,236.010 182.234,236.088 182.312 C 236.166 182.390,236.523 181.722,236.882 180.827 C 237.240 179.932,237.465 179.132,237.382 179.049 C 237.299 178.966,236.942 179.634,236.589 180.534 M259.630 182.129 C 260.531 183.593,263.369 187.500,263.530 187.500 C 263.634 187.500,262.807 186.182,261.693 184.570 C 260.579 182.959,259.592 181.641,259.498 181.641 C 259.405 181.641,259.464 181.860,259.630 182.129 M235.031 184.198 C 234.113 186.122,234.242 186.450,235.202 184.631 C 235.637 183.805,235.925 183.060,235.840 182.976 C 235.756 182.891,235.392 183.441,235.031 184.198 M265.234 190.234 C 266.110 191.523,266.914 192.578,267.021 192.578 C 267.129 192.578,266.500 191.523,265.625 190.234 C 264.750 188.945,263.945 187.891,263.838 187.891 C 263.731 187.891,264.359 188.945,265.234 190.234 M230.322 195.304 C 229.441 197.507,229.577 197.835,230.505 195.744 C 230.924 194.799,231.197 193.957,231.112 193.872 C 231.027 193.787,230.671 194.432,230.322 195.304 M269.531 196.484 C 269.990 197.129,270.454 197.656,270.561 197.656 C 270.668 197.656,270.381 197.129,269.922 196.484 C 269.463 195.840,269.000 195.313,268.892 195.313 C 268.785 195.313,269.072 195.840,269.531 196.484 M228.579 199.431 C 227.925 200.867,228.049 201.174,228.757 199.868 C 229.088 199.258,229.285 198.686,229.196 198.597 C 229.106 198.507,228.829 198.883,228.579 199.431 M226.235 204.900 C 225.581 206.336,225.706 206.642,226.413 205.337 C 226.744 204.727,226.941 204.155,226.852 204.065 C 226.762 203.976,226.485 204.351,226.235 204.900 M224.282 209.587 C 223.628 211.023,223.753 211.330,224.460 210.024 C 224.791 209.414,224.988 208.842,224.899 208.753 C 224.809 208.664,224.532 209.039,224.282 209.587 M222.309 214.106 C 222.068 214.796,221.940 215.429,222.023 215.513 C 222.107 215.597,222.372 215.100,222.613 214.410 C 222.853 213.719,222.982 213.086,222.898 213.003 C 222.815 212.919,222.550 213.416,222.309 214.106 M247.260 218.369 C 247.014 218.830,246.898 219.294,247.003 219.399 C 247.108 219.504,247.310 219.225,247.452 218.779 C 247.891 217.394,248.189 217.732,254.548 226.834 C 257.955 231.709,261.067 236.060,261.465 236.502 C 262.242 237.365,261.523 236.291,255.859 228.125 C 248.006 216.802,248.064 216.868,247.260 218.369 M219.985 219.743 C 219.331 221.180,219.456 221.486,220.163 220.180 C 220.494 219.570,220.691 218.998,220.602 218.909 C 220.512 218.820,220.235 219.195,219.985 219.743 M245.376 222.868 C 244.721 224.305,244.846 224.611,245.554 223.305 C 245.884 222.695,246.082 222.123,245.992 222.034 C 245.903 221.945,245.626 222.320,245.376 222.868 M217.642 225.212 C 216.987 226.648,217.112 226.955,217.820 225.649 C 218.150 225.039,218.347 224.467,218.258 224.378 C 218.169 224.289,217.891 224.664,217.642 225.212 M244.204 225.603 C 243.550 227.039,243.674 227.346,244.382 226.040 C 244.713 225.430,244.910 224.858,244.821 224.769 C 244.731 224.679,244.454 225.055,244.204 225.603 M241.079 233.025 C 240.425 234.461,240.549 234.767,241.257 233.462 C 241.588 232.852,241.785 232.280,241.696 232.190 C 241.606 232.101,241.329 232.476,241.079 233.025 M263.777 239.941 C 264.731 241.284,267.089 244.668,269.016 247.461 C 275.754 257.226,277.528 259.711,277.664 259.576 C 277.835 259.405,262.543 237.500,262.252 237.500 C 262.136 237.500,262.822 238.599,263.777 239.941 M237.954 240.446 C 237.300 241.883,237.424 242.189,238.132 240.883 C 238.463 240.274,238.660 239.702,238.571 239.612 C 238.481 239.523,238.204 239.898,237.954 240.446 M236.782 243.181 C 236.128 244.617,236.253 244.924,236.960 243.618 C 237.291 243.008,237.488 242.436,237.399 242.347 C 237.309 242.257,237.032 242.633,236.782 243.181 M235.208 246.927 C 234.746 248.040,234.432 249.015,234.511 249.094 C 234.589 249.173,235.032 248.327,235.495 247.214 C 235.957 246.101,236.271 245.125,236.193 245.047 C 236.114 244.968,235.671 245.814,235.208 246.927 M232.084 254.260 C 230.933 256.937,231.074 257.324,232.254 254.725 C 232.781 253.563,233.146 252.547,233.066 252.467 C 232.985 252.386,232.543 253.193,232.084 254.260 M230.343 258.417 C 229.426 260.341,229.555 260.668,230.514 258.850 C 230.950 258.024,231.237 257.279,231.153 257.195 C 231.068 257.110,230.704 257.660,230.343 258.417 M279.331 262.305 C 280.223 263.486,281.027 264.453,281.118 264.453 C 281.419 264.453,278.326 260.186,278.015 260.171 C 277.847 260.163,278.439 261.123,279.331 262.305 M228.776 262.174 C 228.423 263.074,228.197 263.874,228.276 263.953 C 228.354 264.031,228.711 263.363,229.069 262.467 C 229.427 261.572,229.652 260.772,229.569 260.689 C 229.487 260.606,229.129 261.275,228.776 262.174 M308.594 265.492 C 306.553 266.687,302.686 268.895,300.000 270.397 C 294.672 273.378,294.709 273.354,294.977 273.622 C 295.078 273.724,295.767 273.399,296.507 272.901 C 297.246 272.402,298.906 271.411,300.195 270.697 C 308.141 266.301,313.260 263.218,312.480 263.300 C 312.384 263.310,310.635 264.296,308.594 265.492 M226.200 268.192 C 225.291 270.255,224.620 272.016,224.709 272.104 C 224.797 272.193,225.600 270.564,226.493 268.485 C 227.386 266.406,228.057 264.645,227.984 264.573 C 227.911 264.500,227.108 266.128,226.200 268.192 M281.449 265.234 C 281.933 266.141,285.993 272.022,286.438 272.461 C 287.093 273.108,286.371 271.920,284.067 268.555 C 281.982 265.512,280.786 263.994,281.449 265.234 M287.109 273.272 C 287.109 274.874,289.977 276.907,290.985 276.019 C 291.324 275.720,292.302 275.105,293.158 274.652 C 294.014 274.199,294.501 273.828,294.238 273.828 C 293.976 273.828,292.905 274.355,291.857 275.000 C 289.497 276.452,289.752 276.486,288.315 274.532 C 287.652 273.631,287.109 273.063,287.109 273.272 M221.928 278.374 C 221.255 280.027,220.767 281.445,220.846 281.523 C 220.924 281.601,221.539 280.312,222.212 278.658 C 222.886 277.004,223.373 275.587,223.295 275.509 C 223.217 275.430,222.602 276.720,221.928 278.374 M219.000 285.406 C 218.212 287.268,217.630 288.854,217.708 288.932 C 217.785 289.009,218.493 287.549,219.281 285.687 C 220.069 283.826,220.651 282.239,220.573 282.162 C 220.496 282.085,219.788 283.545,219.000 285.406 M215.891 292.844 C 215.111 294.714,214.533 296.304,214.606 296.377 C 214.680 296.451,215.391 294.994,216.188 293.141 C 216.984 291.287,217.562 289.697,217.472 289.607 C 217.382 289.517,216.670 290.974,215.891 292.844 M213.951 297.346 C 213.836 297.624,213.461 298.511,213.116 299.316 C 212.772 300.122,212.572 300.781,212.672 300.781 C 212.933 300.781,214.493 297.175,214.311 296.993 C 214.227 296.910,214.065 297.069,213.951 297.346 M210.775 305.015 C 209.934 307.091,208.572 310.306,207.748 312.161 C 206.924 314.016,206.258 315.685,206.268 315.872 C 206.278 316.058,206.816 315.068,207.464 313.672 C 209.292 309.732,212.615 301.547,212.451 301.386 C 212.371 301.307,211.617 302.940,210.775 305.015 M204.586 319.532 C 203.813 321.250,203.300 322.653,203.446 322.650 C 203.738 322.643,206.317 316.734,206.116 316.533 C 206.048 316.464,205.359 317.814,204.586 319.532 M202.716 323.908 C 202.433 324.530,200.736 325.740,197.916 327.330 L 193.555 329.791 190.918 328.349 C 187.637 326.555,187.461 326.764,190.653 328.665 C 193.555 330.394,193.467 330.394,196.286 328.697 C 197.547 327.937,199.424 326.856,200.455 326.294 C 202.236 325.325,203.823 323.615,203.366 323.158 C 203.250 323.041,202.957 323.379,202.716 323.908 " stroke="none" fill="#490889" fill-rule="evenodd"></path><path id="path4" d="M312.107 124.121 C 311.954 145.279,312.205 263.143,312.404 263.342 C 312.564 263.502,312.695 232.353,312.695 194.121 C 312.695 155.890,312.553 124.609,312.379 124.609 C 312.205 124.609,312.172 124.434,312.305 124.219 C 312.437 124.004,312.448 123.828,312.328 123.828 C 312.208 123.828,312.108 123.960,312.107 124.121 M271.869 199.991 C 272.910 201.453,273.438 201.785,273.438 200.977 C 273.438 200.629,273.274 200.445,273.075 200.569 C 272.876 200.692,272.605 200.455,272.474 200.042 C 272.343 199.629,271.968 199.188,271.640 199.062 C 271.204 198.895,271.266 199.144,271.869 199.991 M213.372 230.859 C 213.372 231.611,213.452 231.919,213.551 231.543 C 213.649 231.167,213.649 230.552,213.551 230.176 C 213.452 229.800,213.372 230.107,213.372 230.859 M213.292 234.167 C 213.031 234.482,212.877 234.905,212.951 235.107 C 213.025 235.309,213.402 235.051,213.788 234.534 C 214.536 233.531,214.093 233.202,213.292 234.167 " stroke="none" fill="#6c30b2" fill-rule="evenodd"></path></g></svg>